<svg xmlns="http://www.w3.org/2000/svg" width="100%" viewBox="0 0 980 840" role="img" aria-labelledby="title desc">
  <title id="title">Astrograph docs journey diagram</title>
  <desc id="desc">A top-down docs journey for new users: concepts, first steps, then guides and references.</desc>
  <defs>
    <marker id="arrow" viewBox="0 0 10 10" refX="9" refY="5" markerWidth="8" markerHeight="8" orient="auto-start-reverse">
      <path d="M 0 0 L 10 5 L 0 10 z" fill="#334155"/>
    </marker>
    <filter id="shadow" x="-15%" y="-15%" width="130%" height="130%">
      <feDropShadow dx="0" dy="3" stdDeviation="4" flood-opacity="0.12"/>
    </filter>
    <style>
      .bg { fill: #eef4ff; }
      .panel { fill: #ffffff; stroke: #334155; stroke-width: 2; }
      .start { fill: #ecfeff; stroke: #0891b2; stroke-width: 2; }
      .line { stroke: #334155; stroke-width: 3; fill: none; marker-end: url(#arrow); }
      .eyebrow { font: 600 14px ui-sans-serif, -apple-system, BlinkMacSystemFont, "Segoe UI", sans-serif; letter-spacing: 0.08em; text-transform: uppercase; fill: #475569; }
      .title { font: 700 28px ui-sans-serif, -apple-system, BlinkMacSystemFont, "Segoe UI", sans-serif; fill: #0f172a; }
      .nodeTitle { font: 600 18px ui-sans-serif, -apple-system, BlinkMacSystemFont, "Segoe UI", sans-serif; fill: #0f172a; }
      .nodeText { font: 500 13px ui-sans-serif, -apple-system, BlinkMacSystemFont, "Segoe UI", sans-serif; fill: #475569; }
      .label { font: 500 11px ui-sans-serif, -apple-system, BlinkMacSystemFont, "Segoe UI", sans-serif; fill: #475569; letter-spacing: 0.04em; text-transform: uppercase; }
      .badge { fill: #0f172a; }
      .badgeText { font: 600 11px ui-sans-serif, -apple-system, BlinkMacSystemFont, "Segoe UI", sans-serif; fill: #ffffff; }
    </style>
  </defs>

  <rect class="bg" x="0" y="0" width="980" height="840" rx="26" ry="26"/>
  <rect x="56" y="30" width="868" height="36" rx="12" fill="#0f172a" opacity="0.06"/>
  <text class="eyebrow" x="78" y="55">Docs Journey</text>
  <text class="title" x="78" y="95">Start with concepts, then branch by need</text>
  <text class="nodeText" x="78" y="113">
    <tspan x="78" dy="0">Read the minimum viable path first, then</tspan>
    <tspan x="78" dy="16">expand into deeper references.</tspan>
  </text>

  <g filter="url(#shadow)">
    <rect class="start" x="227.5" y="160" width="525" height="86" rx="16" ry="16"/>
    <rect class="panel" x="227.5" y="276" width="525" height="86" rx="16" ry="16"/>
    <rect class="panel" x="227.5" y="392" width="525" height="86" rx="16" ry="16"/>
    <rect class="panel" x="124.5" y="560" width="231" height="90" rx="16" ry="16"/>
    <rect class="panel" x="374.5" y="560" width="231" height="90" rx="16" ry="16"/>
    <rect class="panel" x="624.5" y="560" width="231" height="90" rx="16" ry="16"/>
  </g>

  <text class="nodeTitle" x="490" y="197" text-anchor="middle">New here?</text>
  <text class="nodeText" x="490" y="218" text-anchor="middle">Start at the top of the compendium.</text>
  <text class="nodeTitle" x="490" y="313" text-anchor="middle">Concepts</text>
  <text class="nodeText" x="490" y="334" text-anchor="middle">Core idea and what Astrograph is not.</text>
  <text class="nodeTitle" x="490" y="429" text-anchor="middle">First Steps</text>
  <text class="nodeText" x="490" y="450" text-anchor="middle">Install, MCP, and first command.</text>

  <text class="nodeTitle" x="240" y="597" text-anchor="middle">Retrieval Workflow</text>
  <text class="nodeText" x="240" y="612" text-anchor="middle">
    <tspan x="240" dy="0">Ask + fetch only</tspan>
    <tspan x="240" dy="16">the needed code shapes.</tspan>
  </text>
  <text class="nodeTitle" x="490" y="597" text-anchor="middle">CLI Reference</text>
  <text class="nodeText" x="490" y="612" text-anchor="middle">
    <tspan x="490" dy="0">Exact commands</tspan>
    <tspan x="490" dy="16">and flags.</tspan>
  </text>
  <text class="nodeTitle" x="740" y="597" text-anchor="middle">Guides &amp; Deep Dives</text>
  <text class="nodeText" x="740" y="612" text-anchor="middle">
    <tspan x="740" dy="0">Operational and setup</tspan>
    <tspan x="740" dy="16">context.</tspan>
  </text>

  <path class="line" d="M 490 246 V 276"/>
  <path class="line" d="M 490 362 V 392"/>
  <path class="line" d="M 490 478 V 560"/>
  <path class="line" d="M 490 560 H 240"/>
  <path class="line" d="M 490 560 H 740"/>
  <path class="line" d="M 240 560 V 650"/>
  <path class="line" d="M 490 560 V 650"/>
  <path class="line" d="M 740 560 V 650"/>
  <path class="line" d="M 240 650 V 700"/>
  <path class="line" d="M 490 650 V 700"/>
  <path class="line" d="M 740 650 V 700"/>

  <line x1="240" y1="700" x2="740" y2="700" stroke="#dbeafe" stroke-width="2"/>
  <text class="label" x="490" y="732" text-anchor="middle">
    <tspan x="490" dy="0">Guides are for learning patterns.</tspan>
    <tspan x="490" dy="14">Reference pages are for fast lookups.</tspan>
  </text>
  <rect class="badge" x="390" y="750" width="200" height="22" rx="11" ry="11"/>
  <text class="badgeText" x="490" y="760" text-anchor="middle">
    <tspan x="490" dy="0">System Design Components</tspan>
    <tspan x="490" dy="11">inspired styling</tspan>
  </text>
</svg>
