<svg xmlns="http://www.w3.org/2000/svg" width="100%" viewBox="0 0 980 840" role="img" aria-labelledby="title desc">
  <title id="title">Astrograph docs journey diagram</title>
  <desc id="desc">A top-down docs journey for new users: concepts, first steps, then guides and references.</desc>
  <defs>
    <marker id="arrow" viewBox="0 0 10 10" refX="9" refY="5" markerWidth="8" markerHeight="8" orient="auto-start-reverse">
      <path d="M 0 0 L 10 5 L 0 10 z" fill="#334155"/>
    </marker>
    <filter id="shadow" x="-15%" y="-15%" width="130%" height="130%">
      <feDropShadow dx="0" dy="3" stdDeviation="4" flood-opacity="0.12"/>
    </filter>
    <style>
      .bg { fill: #eef4ff; }
      .panel { fill: #ffffff; stroke: #334155; stroke-width: 2; }
      .start { fill: #ecfeff; stroke: #0891b2; stroke-width: 2; }
      .line { stroke: #334155; stroke-width: 3; fill: none; marker-end: url(#arrow); stroke-linecap: round; stroke-linejoin: round; }
      .eyebrow { font: 600 14px ui-sans-serif, -apple-system, BlinkMacSystemFont, "Segoe UI", sans-serif; letter-spacing: 0.08em; text-transform: uppercase; fill: #475569; }
      .title { font: 700 27.16px ui-sans-serif, -apple-system, BlinkMacSystemFont, "Segoe UI", sans-serif; fill: #0f172a; }
      .nodeTitle { font: 600 18px ui-sans-serif, -apple-system, BlinkMacSystemFont, "Segoe UI", sans-serif; fill: #0f172a; }
      .nodeText { font: 500 13px ui-sans-serif, -apple-system, BlinkMacSystemFont, "Segoe UI", sans-serif; fill: #475569; }
      .label { font: 500 11px ui-sans-serif, -apple-system, BlinkMacSystemFont, "Segoe UI", sans-serif; fill: #475569; letter-spacing: 0.04em; text-transform: uppercase; }
      .badge { fill: #0f172a; }
      .badgeText { font: 600 11px ui-sans-serif, -apple-system, BlinkMacSystemFont, "Segoe UI", sans-serif; fill: #ffffff; }
    </style>
  </defs>

  <rect class="bg" x="0" y="0" width="980" height="840" rx="26" ry="26"/>
  <rect x="56" y="30" width="868" height="36" rx="12" fill="#0f172a" opacity="0.06"/>
  <text class="eyebrow" x="490" y="55" text-anchor="middle">Start with concepts, then branch by need</text>
  <text class="nodeText" x="490" y="100" text-anchor="middle">Read the minimum viable path first, then expand into deeper references.</text>

  <g filter="url(#shadow)">
    <rect class="start" x="253.75" y="160" width="472.5" height="86" rx="16" ry="16"/>
    <rect class="panel" x="253.75" y="291" width="472.5" height="86" rx="16" ry="16"/>
    <rect class="panel" x="253.75" y="422" width="472.5" height="86" rx="16" ry="16"/>
    <rect class="panel" x="82.5" y="564" width="815" height="136" rx="16" ry="16"/>
    <rect class="panel" x="124.5" y="589" width="231" height="86" rx="16" ry="16"/>
    <rect class="panel" x="374.5" y="589" width="231" height="86" rx="16" ry="16"/>
    <rect class="panel" x="624.5" y="589" width="231" height="86" rx="16" ry="16"/>
  </g>

  <text class="nodeTitle" x="490" y="197" text-anchor="middle">New here?</text>
  <text class="nodeText" x="490" y="218" text-anchor="middle">Start at the top of the compendium.</text>
  <text class="nodeTitle" x="490" y="328" text-anchor="middle">Concepts</text>
  <text class="nodeText" x="490" y="349" text-anchor="middle">Core idea and what Astrograph is not.</text>
  <text class="nodeTitle" x="490" y="460" text-anchor="middle">First Steps</text>
  <text class="nodeText" x="490" y="481" text-anchor="middle">Install, MCP, and first command.</text>

  <text class="nodeTitle" x="240" y="626" text-anchor="middle">Retrieval Workflow</text>
  <text class="nodeText" x="240" y="646" text-anchor="middle">
    <tspan x="240" dy="0">Ask + fetch only</tspan>
    <tspan x="240" dy="14">the needed code shapes.</tspan>
  </text>
  <text class="nodeTitle" x="490" y="626" text-anchor="middle">CLI Reference</text>
  <text class="nodeText" x="490" y="646" text-anchor="middle">
    <tspan x="490" dy="0">Exact commands</tspan>
    <tspan x="490" dy="14">and flags.</tspan>
  </text>
  <text class="nodeTitle" x="740" y="626" text-anchor="middle">Guides &amp; Deep Dives</text>
  <text class="nodeText" x="740" y="646" text-anchor="middle">
    <tspan x="740" dy="0">Operational and setup</tspan>
    <tspan x="740" dy="14">context.</tspan>
  </text>

  <path class="line" d="M 490 246 Q 490 268 490 283"/>
  <path class="line" d="M 490 377 Q 490 400 490 414"/>
  <path class="line" d="M 490 500 Q 490 523 490 558"/>

  <line x1="240" y1="720" x2="740" y2="720" stroke="#dbeafe" stroke-width="2"/>
  <text class="label" x="490" y="752" text-anchor="middle">
    <tspan x="490" dy="0">Guides are for learning patterns.</tspan>
    <tspan x="490" dy="22">Reference pages are for fast lookups.</tspan>
  </text>
</svg>
